<?xml version="1.0" standalone="no"?>
<!DOCTYPE svg PUBLIC "-//W3C//DTD SVG 20010904//EN"
 "http://www.w3.org/TR/2001/REC-SVG-20010904/DTD/svg10.dtd">
<svg version="1.0" xmlns="http://www.w3.org/2000/svg"
 width="51.000000pt" height="51.000000pt" viewBox="0 0 512.000000 512.000000"
 preserveAspectRatio="xMidYMid meet" >

<g transform="translate(0.000000,512.000000) scale(0.100000,-0.100000)"
fill="#1b5e20" stroke="none">
<path d="M404 5105 c-191 -41 -349 -201 -390 -394 -21 -99 -21 -4203 0 -4302
42 -195 200 -353 395 -395 99 -21 4203 -21 4302 0 195 42 353 200 395 395 21
99 21 4203 0 4302 -42 195 -200 353 -395 395 -95 20 -4214 19 -4307 -1z m3195
-1021 l24 -17 -8 -311 c-4 -171 -11 -319 -16 -328 -18 -34 -113 -34 -141 -1
-10 12 -13 63 -13 202 l0 186 -85 7 c-47 3 -320 10 -607 14 l-521 7 -9 -49
c-10 -60 -11 -1142 -1 -1166 7 -17 38 -18 451 -18 429 0 543 6 575 32 8 7 12
48 12 139 0 125 1 129 24 144 17 11 42 15 83 13 l58 -3 1 -413 c2 -467 8 -432
-80 -432 -33 0 -52 6 -66 20 -18 18 -20 33 -20 170 0 144 -1 150 -22 162 -18
10 -133 13 -518 13 l-495 0 4 -505 c2 -278 7 -563 10 -635 l6 -130 196 -3
c159 -2 199 -5 209 -17 15 -18 16 -110 2 -128 -8 -9 -131 -12 -549 -12 l-538
1 -12 24 c-18 36 -16 84 5 109 15 19 29 21 142 23 l125 3 6 30 c10 46 9 989
-1 1705 -9 577 -16 747 -36 873 l-6 37 -113 0 c-138 0 -161 7 -167 51 -6 41 9
99 25 99 7 0 433 2 948 4 669 3 942 7 957 15 13 7 24 26 28 46 3 20 14 40 23
45 25 15 84 12 110 -6z"/>
</g>
</svg>
